<svg xmlns="http://www.w3.org/2000/svg" version="1.1" xmlns:xlink="http://www.w3.org/1999/xlink" width="433" height="433"><svg width="433" height="433" viewBox="0 0 433 433" fill="none" xmlns="http://www.w3.org/2000/svg">
<path d="M0 60C0 26.8629 26.8629 0 60 0H373C406.137 0 433 26.8629 433 60V373C433 406.137 406.137 433 373 433H60C26.8629 433 0 406.137 0 373V60Z" fill="#EEEEEE"></path>
<path d="M234.621 113.446H404.75C402.96 117.027 401.573 120.876 400.588 124.994C399.693 129.022 399.021 132.782 398.574 136.273C398.126 139.765 397.858 142.719 397.768 145.136C397.679 147.553 397.634 148.94 397.634 149.298L392.934 150.104C391.681 144.106 389.398 139.228 386.086 135.468C382.774 131.708 378.88 128.799 374.404 126.74C369.928 124.591 365.139 123.159 360.036 122.443C354.934 121.637 349.965 121.234 345.131 121.234H300.82V219.123H387.429C385.549 222.882 384.117 226.821 383.132 230.939C382.147 235.057 381.431 238.906 380.983 242.487C380.446 246.694 380.133 250.812 380.043 254.84L375.612 255.646C374.628 250.812 373.464 246.784 372.121 243.561C370.778 240.249 368.943 237.519 366.616 235.37C364.378 233.222 361.513 231.566 358.022 230.402C354.62 229.238 350.323 228.388 345.131 227.851C339.939 227.313 333.718 227 326.467 226.911C319.216 226.821 310.667 226.776 300.82 226.776V321.173C300.82 323.143 300.059 325.336 298.537 327.753C297.015 330.259 295.046 332.99 292.629 335.944C290.212 338.898 287.437 342.031 284.304 345.343C281.26 348.745 278.172 352.281 275.039 355.951C271.905 359.711 268.862 363.605 265.908 367.633C262.954 371.751 260.402 375.958 258.254 380.255V136.005C258.254 134.215 257.896 132.29 257.18 130.231C256.553 128.172 255.345 126.292 253.554 124.591C251.853 122.801 249.481 121.324 246.438 120.16C243.394 118.996 239.455 118.415 234.621 118.415V113.446Z" fill="#4A2C2A"></path>
<path d="M213.271 156.146L207.229 156.415C204.632 150.775 201.231 145.762 197.023 141.376C192.906 136.99 188.251 133.275 183.059 130.231C177.956 127.187 172.54 124.905 166.811 123.383C161.082 121.771 155.397 120.966 149.758 120.966C142.954 120.966 136.554 122.309 130.556 124.994C124.558 127.68 119.053 131.35 114.04 136.005C109.027 140.66 104.506 146.12 100.478 152.387C96.5392 158.563 93.1823 165.188 90.4072 172.26C87.7217 179.242 85.6628 186.493 84.2305 194.013C82.7982 201.532 82.082 208.873 82.082 216.034C82.082 223.285 82.9325 230.402 84.6333 237.384C86.3341 244.367 88.7511 251.036 91.8843 257.392C95.0174 263.658 98.8667 269.432 103.432 274.713C107.998 279.995 113.1 284.605 118.74 288.544C124.379 292.393 130.556 295.392 137.27 297.541C143.984 299.689 151.101 300.763 158.62 300.763C165.424 300.763 171.421 300.137 176.613 298.883C181.805 297.541 186.281 295.884 190.041 293.915C193.89 291.946 197.113 289.797 199.709 287.47C202.305 285.053 204.453 282.77 206.154 280.622C207.855 278.473 209.108 276.593 209.914 274.982C210.809 273.281 211.481 272.162 211.928 271.625L209.78 290.558C207.452 293.691 204.23 296.601 200.112 299.286C196.083 301.882 191.339 304.165 185.878 306.134C180.418 308.193 174.331 309.76 167.617 310.834C160.992 311.998 153.965 312.58 146.535 312.58C136.688 312.58 127.11 311.595 117.8 309.625C108.579 307.656 99.8962 304.836 91.75 301.166C83.6038 297.496 76.1291 292.975 69.3257 287.604C62.6118 282.143 56.7931 276.011 51.8696 269.208C47.0356 262.405 43.2311 254.885 40.4561 246.649C37.681 238.414 36.2487 229.596 36.1592 220.197C36.4277 205.695 38.9342 192.67 43.6787 181.122C48.5127 169.485 54.9132 159.369 62.8804 150.775C70.937 142.092 80.2917 134.931 90.9443 129.291C101.597 123.562 112.966 119.31 125.051 116.535C131.407 115.013 138.702 114.028 146.938 113.581C155.174 113.133 163.454 112.909 171.779 112.909C179.836 112.909 187.4 112.999 194.472 113.178C201.634 113.357 207.631 113.446 212.465 113.446C211.481 117.654 210.764 121.413 210.317 124.726C209.959 127.948 209.78 130.992 209.78 133.856C209.78 137.885 210.093 141.645 210.72 145.136C211.346 148.537 212.197 152.208 213.271 156.146Z" fill="#4A2C2A"></path>
</svg><style>@media (prefers-color-scheme: light) { :root { filter: none; } }
@media (prefers-color-scheme: dark) { :root { filter: none; } }
</style></svg>